<?xml version="1.0" encoding="iso-8859-1"?>
<!-- Generator: Adobe Illustrator 16.0.0, SVG Export Plug-In . SVG Version: 6.00 Build 0)  -->
<!DOCTYPE svg PUBLIC "-//W3C//DTD SVG 1.1//EN" "http://www.w3.org/Graphics/SVG/1.1/DTD/svg11.dtd">
<svg version="1.1" id="Capa_1" xmlns="http://www.w3.org/2000/svg" xmlns:xlink="http://www.w3.org/1999/xlink" x="0px" y="0px"
	 width="963px" height="963px" viewBox="0 0 963 963" style="enable-background:new 0 0 963 963;" xml:space="preserve">
<g>
	<path d="M481.5,963C747.4,963,963,747.4,963,481.5C963,215.6,747.4,0,481.5,0C215.6,0,0,215.6,0,481.5C0,747.4,215.6,963,481.5,963
		z M178.1,346.2c33.6-36.6,90.5-39.1,127.2-5.5l177.4,162.6L655.1,345.5c36.7-33.6,93.601-31,127.2,5.6
		c33.601,36.7,31,93.6-5.6,127.2L543.3,691.7c-17.2,15.7-39,23.6-60.8,23.6s-43.6-7.899-60.8-23.7l-238-218.3
		C147,439.7,144.5,382.8,178.1,346.2z"/>
</g>
<g>
</g>
<g>
</g>
<g>
</g>
<g>
</g>
<g>
</g>
<g>
</g>
<g>
</g>
<g>
</g>
<g>
</g>
<g>
</g>
<g>
</g>
<g>
</g>
<g>
</g>
<g>
</g>
<g>
</g>
</svg>
